<?xml version="1.0" encoding="UTF-8"?>
<!DOCTYPE svg PUBLIC "-//W3C//DTD SVG 1.1//EN" "http://www.w3.org/Graphics/SVG/1.1/DTD/svg11.dtd">
<!-- Creator: CorelDRAW 2020 (64-Bit) -->
<svg xmlns="http://www.w3.org/2000/svg" xml:space="preserve" width="56.7972mm" height="56.7972mm" version="1.1" style="shape-rendering:geometricPrecision; text-rendering:geometricPrecision; image-rendering:optimizeQuality; fill-rule:evenodd; clip-rule:evenodd"
viewBox="0 0 5679.72 5679.72"
 xmlns:xlink="http://www.w3.org/1999/xlink"
 xmlns:xodm="http://www.corel.com/coreldraw/odm/2003">
 <defs>
  <style type="text/css">
   <![CDATA[
    .str0 {stroke:#3F324A;stroke-width:20;stroke-miterlimit:22.9256}
    .fil0 {fill:#3F324A}
    .fil1 {fill:black;fill-rule:nonzero}
   ]]>
  </style>
 </defs>
 <g id="Capa_x0020_1">
  <metadata id="CorelCorpID_0Corel-Layer"/>
  <polygon class="fil0 str0" points="-3.27,-17.01 5696.73,-17.01 5696.73,5682.99 -3.27,5682.99 "/>
  <path class="fil0 str0" d="M2839.58 6.78c1553.3,0 2812.5,1259.2 2812.5,2812.5 0,1553.3 -1259.2,2812.5 -2812.5,2812.5 -1553.3,0 -2812.5,-1259.2 -2812.5,-2812.5 0,-1553.3 1259.2,-2812.5 2812.5,-2812.5z"/>
  <path class="fil1" d="M2858.09 3139.26c401.18,187.08 815.23,279.93 1165.19,261.69 2.11,-0.14 4.16,-0.35 6.24,-0.46l25.12 -2487.43c0.88,-87.95 -97.26,-140.8 -170.18,-91.62l-2092.36 1411.64c169.47,322.97 560.95,670.63 1065.99,906.18z"/>
  <path class="fil1" d="M3935.86 3639.78c-364.99,0 -778.9,-100.12 -1177.79,-286.1 -550.22,-256.61 -964.07,-622.58 -1162.96,-987.71l-1063.87 717.76c-83.12,56.06 -53.03,185.11 46.35,198.62l1786.57 242.95c105.13,14.29 201.54,66.19 271.39,146.05l1186.96 1357.21c65.97,75.5 190.29,29.49 191.31,-70.73l13.34 -1320.41c-30.09,1.44 -60.47,2.36 -91.3,2.36z"/>
  <path class="fil1" d="M3935.86 3451.4c-365.02,0 -778.94,-100.12 -1177.79,-286.11 -938.42,-437.65 -1481.03,-1193.37 -1235.18,-1720.49 245.82,-527.12 1173.52,-597.22 2111.98,-159.56 307.02,143.19 585.29,328.86 804.65,536.96 47.45,44.98 49.42,119.84 4.44,167.25 -44.98,47.38 -119.83,49.35 -167.21,4.41 -201.16,-190.75 -457.66,-361.67 -741.89,-494.21 -790.93,-368.82 -1614.14,-348.19 -1797.55,45.12 -183.41,393.32 329.81,1037.24 1120.78,1406.11 401.18,187.07 814.98,280.1 1165.19,261.65 323.46,-16.9 548.04,-125.87 632.35,-306.77 88.02,-188.63 2.89,-404.04 -84,-551.57 -33.19,-56.27 -14.42,-128.8 41.84,-161.96 56.31,-33.16 128.84,-14.43 162,41.87 163.58,277.71 197.2,551.75 94.61,771.67 -123.12,263.98 -419.45,421.32 -834.46,443.05 -32.73,1.73 -66.07,2.58 -99.76,2.58z"/>
 </g>
</svg>
